<?xml version="1.0" encoding="utf-8"?>
<!-- Generator: Adobe Illustrator 25.0.0, SVG Export Plug-In . SVG Version: 6.00 Build 0)  -->
<svg version="1.1" id="katman_1" xmlns="http://www.w3.org/2000/svg" xmlns:xlink="http://www.w3.org/1999/xlink" x="0px" y="0px"
	 viewBox="0 0 4042.7 2677.3" style="enable-background:new 0 0 4042.7 2677.3;" xml:space="preserve">
<style type="text/css">
	.st0{fill-rule:evenodd;clip-rule:evenodd;}
</style>
<g>
	<path class="st0" d="M1357.5,357.8l-17-21.5l-12.4-10.1l-27.6-13.2l-50.3-3.7l-14.7,12.9l-10.9-2.9l17-21.8l-3.2-23.9l18.7-14.7
		l-4.6-25.6l6-15.5l17.8-9.2l44-0.9l55.7-11.5l25.6,6l34.8,21.9l52.3,39.4l2.3,29.3l0.9,39.9h-1.4v0.9h-1.7l-10.1-19.2l-8.3-21.6
		l-15.5,0.9l-3.7-2.3l-17.8-20.1v19.3c8.3,24.7,5.5,36.2,4.6,62.1l-4.6,12.6l-22.4,8.9l-1.7,1.4l-9.8,10.9l-4,20.7v31.6l-4.6-2.9
		l-9.8-18.7l-4.3-12.3l-7.5-27L1357.5,357.8L1357.5,357.8z M1341.4,510.7l-9.2,17c-8.6-0.6-12.4-7.5-16.1-11.2l-27.3-25.9
		l-10.9-12.9c-8.3-8.6-18.4-16.4-30.2-21l-18.4-9.2l-10.6-6.3c-9.5-7.5-15-10.1-15-21.6c0.9-6.3,11.5-4.6,17.8-4.6l9.2-15.5
		l-0.9-18.7c5.7-2.9,14.1-8.9,17.8-14.7c9.5-5.2,12.4-6.9,25.6-6.9c9.5-10.9-6.9-16.1-11.5-27.9l8.6-10.6
		c12.4,4.6,29.3,11.5,40.8,17.8l11.5,8.3c3.2,3.7,36.5,33.9,37.1,49.4c0,0.9,13.2,34.8,14.1,41.1l0.6,29.6v22.1l-2.3,21l-3.7,17
		C1361.2,524.8,1343.7,510.7,1341.4,510.7L1341.4,510.7z M1328.2,629.6l-11.5-20.7c-7.8-12.6-21-29.6-32.5-38.5l-24.7-31l-16.4-14.7
		l-9.8-4.6l-21,9.8l-10.6,0.9l-23.6-6l-7.5,21.6l-12.4-2.3l-2.3-11.5l12.3-31.6l20.7-10.9l19.3-3.2h25.9l33.9,17
		c11.2,4.6,22.1,12.6,29,22.4l15.5,20.1c12,13.2,20.8,29.1,25.6,46.3l2.3,9.5c1.4,11.5,17.8,61.8-6,37.7L1328.2,629.6L1328.2,629.6z
		 M1255.8,766.7l-17.8-42l-16.4-26.7l-19.2-17.2c-4-4-13.2-13.2-17.8-16.1l-6.3-10.9l-15.5,12.4l-16.1-17.8l2.3-14.7
		c2.6-8.6,4-21,2.6-29.3l2.9-29.6c10.1-2.9,17.8,6.6,23.9,4.6c4.6-13.5,8.6-21.6,25-26.1l23,9.2l10.9,9.5l20.1,23l13.2,16.4
		l2.3,26.2l-0.9,22.4l-1.4,24.2l4.6,38.5c-4,11.8-8.6,12.4-6.9,27.3L1255.8,766.7L1255.8,766.7z M2837.6,932
		c-1.7-0.9-4.6-3.7-8.3-3.7c-10.4,0.6-19.2,3.7-29.6,0l-2.3-9.5c8.3-10.1,20.1-11.8,31.9-14.7l5.2-0.9c3.7,0,13.2,4.6,17,5.5
		c3.7,0.9,15.5,10.9,18.7,13.8l0.6,10.9c-4.6,1.7-9.8,2.3-15.5,2.3C2849.9,935.7,2842.4,935.2,2837.6,932L2837.6,932z M1183.9,906.4
		l10.6,7.8c7.2-10.1-11.8-31.6-16.4-41.7l-7.5-14.1l-11.8-18.4c-3.7-7.8,4.6-14.1,9.5-17c-15.5-6.3-18.7-14.9-24.1-30.5l8.6-11.2
		c12.9,1.4,20.7,4.6,33.9,2.3l-8.6-41.1c6.3-6,17.8-15.5,27.3-15.5c2.3,8.6,7.5,57.2,13.8,54.3c17,0,27,48,29.3,56.9l0.9,21
		c0.9,13.8-0.9,24.7-5.5,37.9l-10.6,27c-4.9,10.1-6.3,24.7-6.3,36.5l-2.3,14.7l-14.1,9.8l-19.3-17l-13.8-47.1
		C1170.7,903.2,1169.8,881.1,1183.9,906.4L1183.9,906.4z M2458.8,1064.8c-12.4-20.7-32.5-23.6-49.4-41.1
		c-11.8-14.9-20.7-21.5-20.7-42.2l8.9-5.2c8,2.9,25.9,10.6,31,16.1l6.3-12.4c16.4,0.6,27.6,25.3,34.8,38.5
		c7.8,12.4,16.4,24.7,27,34.8c4,8.6,17.2,30.2-1.8,30.2C2483.8,1079.7,2469.7,1070.2,2458.8,1064.8z M2573.1,1152.1
		c-29.3-11.5-32.5-14.7-44-46.6c-14.6-45.1-30.7-77-59.5-117.3c-15.5-32.5,19.2-3.2,26.2,0c7.8,6.3,21.8,15.5,28.7,23.3l18.4,52.6
		l15.5-17c4.9,7.5,2.9,36.2,15.5,30.2c4.6-17.8,8.6-26.4,14.7-42l-7.5-25.3l-29.6-38.2l-12.3-33.9c6-20.1,22.1-6,31.6,1.4
		c14.6,12.7,98.3,74.4,45.7,21.9c-17.8-21.9-85-105.2-1.4-46.3c20.7,29.3,43.1,55.5,62.4,89.4l0.9-0.6v-0.9
		c-4.6-32.5-20.1-81.9-44-101.2c-9.5-9.5-37.9-20.7-42.5-34.8c-3.2-15.5,23.9-2.9,29.3-0.9c16.1,15.5,64.1,57.2,86.5,65l3.2-0.6
		v-7.2c-3.2-12.1-52-60.1-24.7-56.3c14.6,3.7,26.4,24.7,34.8,33.3l-2.3-35.6c-9.5-18.4-48-52.3-48-65.5l0.9-1.7
		c0-27.9,55.8,54,50-10.9c13.2-43.4,32.5,62.7,38.8,34.8l-5.5-33.9c-7.5-43.4,12.4-29.3,20.1-0.9l13.8,36.5v29.3
		c-2.9,33.3-6.9,143.1-47.1,151.4c-14.4,2.3-15.5,3.7-21.5,21c0,14.4-24.4,80.8-30.2,91.1c-2.3,17-3.7,50.9-24.4,58.1
		c-3.2-3.4-29.6-27-31.9-25l-0.6,0.9l-0.9,1.4c0,1.7,29,65.8-1.4,34.8C2615.7,1171.4,2592.4,1162.2,2573.1,1152.1L2573.1,1152.1z
		 M2054.7,1296.7l-21-0.9l-21.6-5.2l-54-9.5c-3.2-3.7-14.7-8.9-20.4-8.9c-12.1,2-12.1,7.5-28.2,6c-15.5-1.7-31-6-45.1-10.9
		c-9.2-4.6-27.9-7.8-38.5-9.2c-15.5,1.4-38.8,1.4-55.7,2.3c-17.8,0-26.7-3.7-44-10.1c-8.6-1.7-12.4-7.8-17.8-11.5l-40.2-21.8
		c-0.6-14.1-0.6-14.7,14.1-13.2c23,9.5,46.3,18.7,70.1,24.1l11.8-0.9c17,0,34.8,2.3,51.7,2.3c14.7,6.9,48.6,12.3,66.4,15.5
		c17.8,5.4,33.9,16.4,52.6,16.4c6.3,0,13.8,2.9,19.3,1.4l12.4,4.6c10.1,0,25-1.7,33.3-0.9c10.9,0,22.4,3.7,33.9,3.7
		c4.9,0,14.7-0.6,20.4-0.6c4.6,0,19.8,0,23,3.2c6.9,0,6,9.2,6,12.9l-0.9,0.9v0.9l-14.7,6.9L2054.7,1296.7L2054.7,1296.7z
		 M1754.1,1294.4l-31,9.5l-3.2-21.8l8-2.3c6-0.9,17-3.2,23-3.7c11.8,0.6,25,2.3,37.1,2.3c16.1,0,37.9,1.4,54.3,2.9
		c7.5,0,15.5,9.5,15.5,17c-14.1,1.7-30.2,4-45.1,4c-9.2,5.5-19.8,1.7-30.2,0C1776.5,1300.4,1761.9,1295.2,1754.1,1294.4
		L1754.1,1294.4z M2750.2,1310.8c3.2-37.9,0-69,0-105.2c7.8-24.1,25.3-50.3,31-72.7c1.4-27.3,3.7-56.3,5.2-82.8
		c10.4-28.5,34.2-55.5,51.7-80.5l17.8-17.5c52-6,66.4,127.6-15.5,119c-11.2,2.6-16.1,15.2-23.8,22.4c-5.2,6-8.6,13.2-8.6,21.6
		c19.6,10.9,13.2,10.3,33.3,2.3l7.2,16.4c-3.2,13.8-6,42.5-13.2,52.3l-64.4,124.7H2750.2z M1423.9,1324c-1.4-3.2-6-9.5-7.5-11.8
		c-10.9-0.9-16.1-3.2-22.7-13.2l-6-21.6l2.3-27.9c-1.4-3.7-5.2-8.3-8.3-11.5c-7.2-3.2-10.9-5.5-14.7-12.4
		c2.3-11.8,12.9-14.7,24.4-16.1l-13.8-23.6c-10.6-8.9-18.4-15.5-27-26.7l-4.6-10.9c4-3.2,10.1-3.7,15.2-3.2
		c6.6,1.7,11.8,6,16.4,10.1c8,8.2,17.5,14.8,27.9,19.5c15.5,8.9,32.5,23,48.6,30.8c10.3,3.2,23.3,8.3,34.2,10.1
		c20.7,4.3,45.7,11.5,66.4,14.7c14.1,4.6,31,9.5,44.3,13.8l8.9,6.9c0,10.9-2.9,10.3-12.9,10.3c-13.8-1.7-30.2,1.4-42.5-1.7
		c-7.5-3.7-15.5-7.2-23-11.5l-31.9-7.8l-44-7.2l-6,8.6l26.7,23.3l-9.8,9.2c-8.6-0.6-19-4.6-27.3-4.6l-8.6,10.9l4.9,18.4
		c7.8,15.5,22.4,30.2,29.6,47.1l-13.2,13.2C1441.7,1347.5,1434.8,1333.8,1423.9,1324L1423.9,1324z M1757.8,1373.4
		c-6-8.6-11.5-18.7-16.4-27.9l-6-25.9l9.5-6c3.7,0,11.5,24.1,13.8,29.6c6.7,11.2,12.9,22.7,18.7,34.5c-0.8,8.1-9.5,45.7-9.5,38.8
		C1757,1416.5,1757.8,1378.6,1757.8,1373.4L1757.8,1373.4z M1383.9,1439.8l-9.5-6.3l-6.6-22.4c-1.7-13.8,15.2-4.6,22.1,0.9
		c8.6,6.1,27.3,13.2,30.2,22.1l4.6,21.8l-6,1.7c-7.8-1.7-16.4-3.1-23.3-5.4C1389.4,1448.1,1387.7,1446.7,1383.9,1439.8
		L1383.9,1439.8z M2697.6,1530l18.7-61.5c-5.4,2.9-8.1-91.4,17-76.7c6.1,6.1,1.4,22.4,0.9,29.3c0,11.5,3.7,14.9,10.9,23.3
		c17.5,0,29.9-7.8,43.1-17.8c20.7-14.1,10.9,10.9,8.6,16.1c-4.5,9.8-8.5,19.9-11.8,30.2c-26.4,14.1-44.8,25.6-61.8,50.3l-22.4,17.8
		L2697.6,1530L2697.6,1530z M2023.1,1789c-27.9,0-56.6-25.3-78.2-41.7l-16.1-11.5c-54-45.7-98.9-121.6-148.6-174.2
		c-8.6,2.3-21.6,9.5-28.5,10.4c-17.8,2.3-26.2-10.4-34.8-21.6l-20.1-38.8c-4.9-19.5-8.6-45.1-14.7-64.4l-4.6-11.2l-7.8-13.2l-0.9-4
		v-2.3c0-8.3,10.1-6.3,15.5-4c11.5,7.2,16.1,12.6,20.7,24.1c8,23.3,8.6,46.8,14.7,68.7l5.7,8.3c9.8,4.3,39.9,16.4,37.1-3.7
		l-3.2-10.1l-2.6-11.5l3.4-12.4c0.6-5.2,0.6-12.3,0.6-17c-0.6-5.4-4.6-13.2-5.5-17.8c-3.2-10.9,0.9-17,11.8-17.8
		c12.9,6.9,22.1,23.9,29.3,37.1c5.2,11.8,14.7,14.6,20.1,25l3.7,8.3c9.5,3.7,27,7.2,33.9,15.5c5.7,8.6,11.8,16.1,19.5,24.1l4.6,3.7
		c10.6-2.3,9.8-4.9,9.8-17.8c-1.4-12.3-8.3-24.1-11.2-36.5c0.6-10.6,5.2-18.7,5.2-28.4c-0.6-10.1-4.6-25-6.9-34.8v-10.1l0.9-21
		l3.7-15.3h10.9l9.2,16.1c1.4,14.6,3.7,31,5.2,45.7l1.1,6.9l0.9,12.4l4.6,5.4c4.3,2.9,12.4,5.2,16.1,6.6l17,2
		c18.7,2.9,36.2,14.9,54.9,18.4c22.4-0.9,47.1-15.5,69.6-15.5c16.1,1.4,36.5,4.6,53.4,3.7c22.1-6,49.4,0,71-13.2
		c8.6-13.8,13.2-41.4,27-47.1c9.2,3.2,10.6,0,21-2.9c10.1,0,13.8,10.1,23.8-3.7c1.7-9.5,3.2-19.5,3.2-28.8V1336
		c3.7-2.3,12.1-0.8,14.4,2.6c6.3,8.3,14.9,23,20.4,33c9.2,15.5-1.4,41.7,6,49.4c17-9.2,8.1-32.5,4.6-46.3c0-4.6-0.9-27.9,12.3-22.7
		l17,34.5c5.4,12.1-4.3,38.5,1.7,40.8l19.8-17.2h7.2l7.8,15.5c-0.9,10.4-4.6,25.3-4.6,35.6c4.6,4.6,10.1,9.5,17,9.5
		c13.8,1.4,42-3.4,48,11.2c-0.9,15.5-0.9,22.7-21,22.7c-22.4,0-44.8-3.7-67.8,3.7c-40.5,44.8-30.2,119-96,135.1
		c-14.6,22.7-43.4,47.1-53.2,72.1c0.9,17,3.7,31.6-3.4,48c-18.4,1.4-37.6-1.7-56-3.5l-5.5-3.7c-14.6,0-28.7,5.5-41.1,14.7
		C2085.5,1786.7,2040.9,1797.6,2023.1,1789L2023.1,1789z M1652.1,2041.6l-9.5-22.4l1.7-23.9l3.2-25.6l0.9-24.4l0.6-7.2
		c0-9.2-3.7-11.8,6-14.7v0.6l6.6,28.8l-1.7,28.7l-4,27.6C1655.8,2018.6,1660.7,2041.6,1652.1,2041.6z M2444.1,2256.5
		c-17.8-9.2,10.1-27,7.2-26.1h0.6l0.9-0.9l26.7-29.3c2.6-14.1,8.6-26.2,16.4-38.8l16.1-18.4c8.1-7.8,27.3-60.3,31.9-60.3
		c2.6-26.4,4.9-54,14.7-79.6c1.4-6.9,6.3-16.4,10.1-22.4c10.9-11.5,23.3-17.8,40.2-16.1l24.7-27.3l14.1-5.2h0.6l0.9,0.6
		c0,11.8-12.4,22.4-19.2,29.6l-13.2,22.1l-21.8,47.4l-12.1,18.4c-2.3,15.5-4,27-14.1,39.4l-6.3,9.2c-13.5,19.5-23.8,43.4-35.3,64.4
		c-5.5,8.9-11.5,19.2-17.2,27.9c-8.9,11.2-22.1,22.1-31.6,33.9C2467.4,2238.7,2458.8,2247.9,2444.1,2256.5L2444.1,2256.5z
		 M2260.2,2385.6c1.4-2.3,14.6-23.3,16.4-23.3h0.6l0.9-0.6c11.5-21,25.6-48,34.8-70.4l10.1-17c7.8-14.7,15.5-30.8,23.9-44.8
		c7.2-10.1,10.9-20.1,11.8-33.3c3.7-5.2,10.1-15.2,13.2-20.7c2.9-7.8,6-17,8.3-25c4-18.4,12.4-36.8,20.1-54.6
		c10.1-27.9,7.8-13.2,15.5-13.2v14.6c-5.4,27.9-19.5,60.4-20.4,88.8c0,15.5-6.6,34.8-12.1,48l-0.6,0.6l-1.2,0.9h-0.9l-8.9,15.5
		l-25,24.1v2.3c-23,28.7-47.1,77.3-70.1,110.6l-17.8,17.5v-0.6C2253.3,2399.4,2255.6,2390.2,2260.2,2385.6L2260.2,2385.6z
		 M2083.2,2474.4c-23.3-0.9-72.1,6-95.4,6c-60.9,0-65,2-128.5-1.1l-18.4-2c-21-2.3-49.7-34.5-63.5-48.3
		c-17.8-10.9-38.8-35.6-51.1-54c-17.8-38.8-54-82.8-78.8-121c-19.3-25.9-44.3-57.8-66.4-79.9l-21.3-29.6l-12.1-13.8
		c-11.6-13.8-22.7-28.1-33-42.8l-10.3-14.7l-8.3-15.5l-4.9-9.8c-4.6-10.9-9.8-22.7-13.2-33.9c-12.1-36.2-29.9-70.7-47.4-104.6
		c-8.6-15.5-14.9-33.9-21.3-50.3l-7.5-11.2c-8.2-13.9-14.7-28.8-19.3-44.3l-3.4-10.9c-4.6-12.1-8.3-28.5-12.9-39.9l-8.6-16.4
		l-7.5-14.7c-8.6-15.5-19.5-33.9-27.3-50.3l-12.4-20.7l-9.2-18.4c-10.9-23.9-19.5-48.8-25.6-74.4l-5.2-21.6
		c-34.2-17.8-43.4-34.8-58.9-67.8l-5.5-23.6l16.4-39.1l21.6-13.2l0.9-38.5l-4-45.7l-5.2-46.6l-3.4-41.1l2.6-18.4l-1.4-17.8
		l-3.5-17.8l-2.9-19.3l-3.2-17l-2.3-17.8l1.7-17l7.5-18.4h7.2l6,5.2l-2.3,15.5v9.5l3.2,8.9l-1.7,5.5l-0.6,28.7l1.4,33l6.3,15.5
		l3.2-2.3c6-4.6,11.2-8.3,19.3-8.3l3.7,1.4c0.6,17.2,7.2,23.3,9.5,35.6l-10.3,48l-4.6,30.8l-2.3,29.3l-2.3,38.8
		c0,13.2-0.6,21.6,5.5,33.9c28.7,16.4,49.4,43.1,77.3,59.5c11.5,5.5,27,10.9,39.4,14.7c10.9,2.3,22.4,4,33.9,4.9
		c10.3,0.6,24.1,0,33.9,0c10.9-3.4,27.3-8.6,38.8-8.6c12.4,0,24.7,6.6,37.1,10.1c23.9,7.5,49.4,17.8,74.1,26.2l22.7,10.1l2.3,2.3
		c0-9.5-14.9-23.9-19.5-29.3c-7.8-6.9-18.7-15.5-23.3-24.7l-0.6-21.8l4.3-3.7c10.3,0.9,34.2,32.5,47.4,42l12.4,10.6l11.5,26.2
		c18.7,22.4,34.8,46.6,41.7,75.9l2.3,13.8l0.9,45.7l-2.3,44.8l-11.5,87.9c-10.1,21.3-10.9,73-20.4,84.2c-6.6-29.9-2.9-71-5.2-102.6
		l0.9-30.2l10.1-33.3v-7.5l-0.9-1.7h-0.6l-0.9,0.9l-13.2,18.7l-3.7,1.4c-5.7,2.3-13.2,5.2-20.4,4.6c-11.2-2.3-17,11.5-18.4,21
		l-6,3.2l-17-3.2c-15.5-0.9-34.8-0.9-50.3-5.7l-15.5-0.6c-17.8,2.9-21.8,11.5-33.3,23.3l-10.9,25.3c-6,12.6-11.5,27.9-12.4,41.1
		l3.4,14.1l6,11.5c9.2,9.2,22.1,19.2,31.6,24.7l23.9,27l0.9,1.4l0.6,1.7l0.9,1.4l1.7,0.9c11.5-37.4,25.3-92,49.4-122.1
		c17-3.2,19.3-1.7,22.4-21l7.5-6l4.9,3.1l10.6,19.8l4.9,8.6c1.4,19.3,10.6,50.3,10.6,67.3l-7.5,7.8c-12.6-10.3-19.3-16.4-34.8-14.1
		c-13.2,6.3-37.4,49.4-40.5,66.4l-1.4,8.1c-2.3,33.1,9.5,50.9,29.3,78.2c37.9,9.8,53.5,35.3,79,72.4c45.7,23.8,111.2,21.6,152.9,0
		c10.9,0,14.1-3.7,24.1-5.5l20.1-13.8c17.5-12.4,37.7-7.2,60.1-12.4c15.5-4,26.4-11.8,37.9-21l9.2-9.2
		c11.8-19.3,10.9-31.1,10.1-52.6c-1.4-9.5-6-19.2-7.8-27.9l4.9-0.9c23,13.2,40.8,34.8,31.6,62.6c-1.4,14.1,3.7,34.8-5.5,45.7
		l-17.8,9.8c-3.2,20.4-1.7,22.7-21,23.6c-7.8,8.9-13.8,17.5-16.1,30.2c1.4,5.2,6,9.8,7.5,13.8l17,0.9c18.1-4,38.2-9.5,56.6-11.8
		c18.7-1.4,37.1-22.1,54.9-17c17.8,3.2,29.3-2.3,49.4-4.6l7.2-0.6v-3.5c-4-5.2-12.4-7.5-20.4-9.8l-12.9-2.3
		c-17-2.6-23.3-2.6-39.7-11.8c-8.9-8.6-17.5-16.1-23.6-27l-17.8-73.3c-6.3-6.3-10.9-21.8-14.1-31l-0.6-16.1l-0.9-14.1
		c-4.9-15.5-6.3-31.6-18.4-41.9c-15.5-14.9-42-15.8-45.1,14.9l-0.6,0.6c-10.3,0-5.5-19.2-5.5-29c0.9-12.4,1.4-25,8.3-33.9
		c6.9-4.9,21.6-5.7,31-4.9c13.2,2.9,31.6,13.8,43.4,22.4c12.1,9.2,17.8,14.9,23.8,28.4c10.1,20.4,20.7,32.5,34.8,48.9
		c16.1,19.5,33.9,33.9,54,49.4c11.5,8.6,30.2,18.7,43.4,24.7c13.8,6.9,30.2,14.1,44.8,17c31.1,8.5,61.9,17.8,92.5,27.9
		c20.4,15.5,16.1,23.9,0,27l-3.7-3.1c-5.4-1.4-15.5-4.6-23.3-4.6c-15.5,4.6-32.5,20.1-48.6,23.3l-6.3,0.6
		c-12.4,8.6,11.5,20.1,17.2,31.9c2.9,13.8,9.8,33.9,18.4,47.1c3.7,10.9,6.9,21.6,8.3,32.5c6.3,45.7,2.3,95.7-17.5,138.2l-1.7,0.6
		l-2.3,1.1h-3.7l3.7-40.2c0-29.6-2.3-57.2-8.6-86.5c-6.6-9.5-24.4-22.7-33.1-31.9c-2.3-20.7,11.5-24.7,10.1-40.2
		c-6.1-6.9-23.3-17-32.5-19.2l-2.9-1.4c-19.5,19.2-31.9,48.6-62.6,41.1c-14.1-7.2-32.5-21.3-48-23.6c-25,19.2-25,19.2-51.7,25.9
		l-18.7,2.9c-17.5,5.5-38.8,14.1-54.9,21l-17,13.8c5.5,5.5,15.2,8.6,21.8,13.2l25.3-3.7c5.5-4.9,30.2-15.5,33.9-8
		c4,8.6-8.3,19.2-7.5,27.9c6,7.8,17,10.9,24.4,15.5l0.9,2.3c0.6,8.6-0.9,21-3.7,29.6c-31,15.3-65.8,26.7-99.2,34.8
		c-18.4,2-95.7,8.3-103.5,24.4l-13.8,14.1l-14.7,27.9l-1.7,13.8l1.7,13.2c8.6,21.6,19.2,38.5,44,40.8h26.1c20.4,1.7,42,2.3,62.7,3.2
		l9.5,0.6l8.9,1.7c19.2,0.6,39.1,3.2,58.3,2.6l10.6-0.9l10.9-1.2c8.5-1.7,16.7-4.2,24.7-7.5c11.5-2.3,23.9-12.4,33.9-12.4h4.6
		l4.6,1.4c7.8,3.5,13.2,10.1,14.7,17.8C2128,2467.5,2121.1,2475.8,2083.2,2474.4L2083.2,2474.4z"/>
</g>
</svg>
